<?xml version="1.0" standalone="no"?>
<!DOCTYPE svg PUBLIC "-//W3C//DTD SVG 20010904//EN"
 "http://www.w3.org/TR/2001/REC-SVG-20010904/DTD/svg10.dtd">
<svg version="1.0" xmlns="http://www.w3.org/2000/svg"
 width="375.000000pt" height="375.000000pt" viewBox="0 0 375.000000 375.000000"
 preserveAspectRatio="xMidYMid meet">
<metadata>
Created by potrace 1.11, written by Peter Selinger 2001-2013
</metadata>
<g transform="translate(0.000000,375.000000) scale(0.100000,-0.100000)"
fill="#000000" stroke="none">
<path d="M2197 3528 c-17 -18 -197 -285 -400 -593 -204 -308 -449 -679 -546
-825 -97 -146 -178 -269 -180 -275 -2 -5 -8 -14 -13 -20 -5 -5 -35 -49 -66
-96 -31 -47 -66 -99 -77 -115 -199 -298 -450 -685 -457 -705 -14 -41 13 -96
56 -114 34 -14 50 -13 91 6 11 6 56 66 100 134 53 82 85 123 95 121 8 -2 137
-83 285 -181 149 -97 322 -212 386 -254 l116 -76 -80 -120 c-91 -137 -104
-181 -68 -227 26 -32 79 -45 119 -29 18 8 51 46 92 109 36 53 67 101 69 107 2
5 8 14 13 20 11 11 132 194 1054 1595 111 168 221 331 245 364 24 32 56 79 70
105 14 25 67 108 117 184 91 137 96 147 93 197 -4 60 -97 101 -148 65 -11 -8
-59 -73 -106 -144 l-86 -130 -103 68 c-285 188 -617 406 -650 427 l-37 24 81
122 c112 169 119 190 83 244 -34 53 -103 58 -148 12z m-24 -635 c107 -70 481
-316 604 -397 l72 -47 -25 -41 c-89 -140 -167 -249 -177 -245 -34 14 -782 500
-780 508 6 20 187 289 195 289 5 0 55 -30 111 -67z m-37 -665 c292 -187 393
-257 388 -268 -9 -25 -178 -280 -186 -280 -3 0 -182 117 -397 260 l-390 259
92 140 c51 78 93 141 95 141 2 0 181 -114 398 -252z m-307 -477 l389 -259 -95
-146 -94 -145 -82 53 c-45 29 -163 106 -262 171 -99 65 -237 155 -306 201 -70
45 -130 87 -133 93 -7 10 173 291 186 291 4 0 183 -117 397 -259z m-499 -356
c259 -168 570 -375 570 -381 0 -3 -43 -71 -95 -150 -65 -100 -99 -143 -108
-137 -6 4 -104 68 -217 142 -113 74 -284 186 -380 249 -96 63 -177 116 -179
118 -5 4 61 108 71 112 5 2 8 8 8 12 0 5 25 47 56 94 l57 85 71 -48 c39 -26
105 -69 146 -96z"/>
</g>
</svg>
